<?xml version="1.0" standalone="no"?><!DOCTYPE svg PUBLIC "-//W3C//DTD SVG 1.1//EN" "http://www.w3.org/Graphics/SVG/1.1/DTD/svg11.dtd"><svg t="1528971069340" class="icon" style="" viewBox="0 0 1836 1024" version="1.1" xmlns="http://www.w3.org/2000/svg" p-id="10289" xmlns:xlink="http://www.w3.org/1999/xlink" width="114.75" height="64"><defs><style type="text/css"></style></defs><path d="M1412.256236 110.886291H421.925959v0.724466c-4.784343-0.222361-9.489783-0.724466-14.388893-0.724466-171.052809 0-309.691158 137.397432-309.691158 306.850678a303.149448 303.149448 0 0 0 31.223755 134.470878c35.448609 86.469645 125.63383 203.689631 278.467403 338.748688 83.729586-74.11069 147.575817-141.873339 194.67326-202.405677h791.690388c6.118507 0.387338 12.158113 0.925308 18.355522 0.925308 159.741102 0 289.219622-129.557422 289.219622-289.31287s-129.485693-289.277005-289.219622-289.277005z" fill="#E03533" p-id="10290"></path><path d="M692.388375 417.736969c0 157.352517-127.477273 284.901519-284.851309 284.90152-157.330998 0-284.844136-127.556175-284.844136-284.90152 0-157.287961 127.513138-284.844136 284.844136-284.844136 157.374036 0 284.851309 127.556175 284.851309 284.844136z" fill="#FFFFFF" p-id="10291"></path><path d="M261.524948 289.592614s-10.680489 20.28504-23.17573 44.565401c0.968345 3.148915-24.509894 69.950392-5.415561 133.509705-2.410104 9.532821 9.568686 66.815822 28.66302 63.631042-1.00421 10.90285 0.29409 21.447054 1.857788 24.882887 1.556525 3.486043 2.783096 61.048789 95.665338 85.709314 41.904244 0.652736 108.196443 11.942925 165.006031-51.630734 11.756429 5.171681 50.576314 4.913456 51.394028-43.568364 4.038358-9.030716 43.862454-73.716179 39.078111-120.325864 6.340868-12.73912 23.505684-73.622931-24.76812-133.59578-4.748478-22.953369-24.287534-62.461855-87.359088-61.19942-15.500697-9.38219-21.210348-11.290188-26.70481-9.991888-5.559019 1.2983-45.010122-24.065173-85.42957-0.372993-20.019641-4.024012-75.229667 16.131915-119.249925 55.439559-12.681736 12.774984-38.152803 71.801007-31.77607 63.831885" fill="#7E3C31" p-id="10292"></path><path d="M248.836038 327.731071c0 3.170434 0 3.170434-3.148915 3.170434 0 3.170434-3.148915 3.170434-6.340868 6.376733 3.148915-6.340868 3.148915-9.547167 3.148915-15.888035 9.525648-15.866516 25.435202-28.627155 41.344756-41.359102 3.18478-3.134569 6.340868-3.134569 9.532821-6.340868 15.909554-25.413683 41.344756-38.116938 69.964738-44.51519 6.383906-3.170434 12.688909-3.170434 22.250422-3.170434 3.148915 0 6.383906 0 9.532821-3.170434 28.619982-9.532821 54.026492-9.532821 82.682339 3.170434h3.148915c9.568686 0 15.873689 6.340868 19.137371 12.717601l-3.263682 3.170434c-9.489783-9.547167-18.979567-9.547167-28.548252-3.170434l-3.148916 3.170434c3.148915 6.376733-3.227818 6.376733-6.383905 6.376733-3.220645 3.134569-6.376733 6.319349-9.525649 6.319349 0 3.18478-3.18478 3.18478-6.340868 3.18478 0-3.18478 0-3.18478 3.148916-6.376732 6.376733-6.340868 12.753466-15.888035 19.130198-19.079988 0 0 3.191953-3.18478 0-3.18478-15.945419-9.489783-38.26757-9.489783-57.283001-3.148916-12.717601 3.148915-25.47824 6.340868-38.152803 15.909554-6.383906-3.170434 0-6.319349 0-6.319349-9.532821 0-19.058469 3.148915-28.627155 9.511302a84.877255 84.877255 0 0 0-31.811935 19.058469c-12.717601 19.094334-34.932158 25.413683-47.685624 41.323237-3.18478 3.191953-6.376733 9.511302-12.753466 15.888035v6.376733z m0 0" fill="#6A3934" p-id="10293"></path><path d="M582.778865 521.751595c0 3.18478-3.220645 6.412597-6.448462 12.731947-3.120224 3.170434-9.489783 9.547167-6.305004 15.888035 3.18478 22.286287-12.710428 41.344756-31.847799 38.188668h-3.148915c-3.18478 0-6.376733-3.206299-6.376733-3.206299 3.18478-3.191953 6.376733-3.191953 9.525648-3.191953a25.11242 25.11242 0 0 0 18.133161-7.359424 24.847022 24.847022 0 0 0 7.337906-18.15468c0-9.489783 0-19.022605-9.489784-22.207384-6.448462-3.191953-9.568686 0-9.568686 3.18478-3.18478 9.532821-6.41977 19.022605-15.945418 22.286286v-15.909554c0-6.376733-3.120224-12.753466-3.120224-19.094333 6.305004-3.227818 6.305004-3.227818 6.305004 0v25.413683c6.340868-3.170434 6.340868-9.547167 9.568686-12.703255 3.18478-12.717601 12.753466-12.717601 22.250422-3.18478v3.18478c3.18478 3.148915 6.376733 0 6.376732-3.18478 3.18478-6.319349 6.305004-15.909554 6.305004-25.492586v-3.148915c3.227818 3.148915 3.227818 9.511302 3.227817 15.888035 3.220645 0 3.220645-3.148915 3.220645-3.148915v3.220644z m0 0" fill="#6D3B34" p-id="10294"></path><path d="M550.96693 531.255725c6.383906 0 9.568686 3.191953 9.568686 6.376732 9.489783 22.286287 0 50.913442-28.627155 47.685625h-6.376733v-3.163262c-3.18478 0-3.18478-3.206299 0-3.206298a174.495815 174.495815 0 0 1-28.698884 22.286286c0 3.170434 0 3.170434-3.120223 3.170434-3.18478 0-6.376733-3.170434-9.525649-6.376732 0-3.148915 3.148915-3.148915 6.340869-3.148916s6.305004-3.18478 9.568685-3.18478l6.305004-6.362387c3.18478 0 6.376733-3.170434 9.561513-6.376732 6.383906-3.148915 6.383906-9.583032 6.383905-15.909554 0-3.148915 0-3.148915 3.18478-3.148916h3.148916c3.220645 3.148915 3.220645 6.326522 3.220644 9.475438 3.148915 6.434116 9.532821 9.583032 15.873689 6.434116 6.41977-3.206299 12.753466-12.753466 9.568686-19.166063a24.172767 24.172767 0 0 0-6.383906-15.85217c0.007173-3.148915-3.18478-6.340868 0.007173-9.532821z m0 0" fill="#E4BA9C" p-id="10295"></path><path d="M514.77951 581.15061c-0.451894 0.573834-0.968345 1.040075-1.405894 1.556526-8.456882 9.009197-9.489783 3.887727-13.872443-4.820208-2.668329-5.322312-11.792293-12.050519-8.89443-18.685477 4.224854-9.583032 17.351312-2.151878 4.597847-15.3142-21.389671-22.135655-51.250569-12.20115-67.891762 9.346324 7.302041-9.4324 11.304534 13.556834 13.829405 17.430215 6.599094 10.321843 19.137371 18.556364 29.667229 24.309052 4.153125 2.280991 12.610007 1.721503 12.387646 7.337905-0.667082 17.702786-50.425682 25.621698-62.920922 28.031802-21.174483 3.94511-43.346003 3.859035-64.0399-2.410103-9.89864-2.948073-19.947912-5.673786-29.215335-10.307498-4.303757-2.166224-22.178693-14.403239-19.137371-21.059716 1.370029-3.077186 11.864023-3.966629 14.869479-6.061124 4.784343-3.486043 9.159829-9.475438 12.351782-14.345855 4.705441-7.101199 13.79354-21.375325 8.973333-30.312793-7.07968-13.198187-32.672686-19.395597-46.35146-17.258064-5.932011 0.889443-11.311707 5.874628-16.97832 5.874627-3.191953-3.191953 0-6.319349 0-6.398251 6.670823-6.642131 15.536562-9.109618 24.617488-10.529858 6.448462-1.040075 18.212064 0.200842 22.989234-5.114298 0.817714-0.875097 1.821924-5.602057 2.89069-7.172928 2.5966-3.859035 14.682983-15.314201 19.467326-15.3142 3.148915 0 6.348041 3.206299 6.348041 6.412597 10.529858 15.744577 31.589574 9.475438 45.93543 3.507562 17.537808-7.194447 36.897541-18.965221 55.877107-9.253077 4.970839 2.489006 4.153125 2.209262-0.667082 5.250583-6.71386 4.153125-16.311238 3.801652-23.505684 7.287695-13.872442 6.692342-11.232805 19.797281 4.447215 16.813342 14.238262-2.689848 27.65881-2.001247 41.975973-3.629501 5.860282-0.631218 8.607513-0.559488 7.718071-6.340868-1.226571-8.01216-12.753466-8.729453-9.568686-18.22641 1.929518-5.580538 11.864023-13.886788 17.946665-14.051765 8.08389-0.186496 4.963666 7.639168 6.082643 13.592698 1.183533 6.728206 5.229064 10.680489 10.085137 15.242471 16.68423 15.550907 17.494771 38.339299 10.458128 59.083407a51.860268 51.860268 0 0 1-9.06658 15.529388z m0 0" fill="#E4BA9C" p-id="10296"></path><path d="M321.999902 751.794563c-6.376733-3.242163-12.710428-15.966937-9.525648-25.456721 3.148915-6.376733 3.148915-12.717601 3.148915-19.130198 0-9.547167 3.148915-22.279114 6.376733-31.833454 3.120224-6.319349 6.340868-9.547167 15.873689-12.681736 3.148915 0 6.340868-3.191953 9.525648-6.398252 4.863245-4.834553 9.274596-8.399498 14.761886-12.624353-4.526117-0.129113-10.529858-3.930764-14.79775-5.451425-25.105247-8.564476-50.834539-17.2222-67.22468-39.673464-2.230781-2.983938-19.947912-40.785267-15.421794-40.785267h3.184779c0 3.18478 3.18478 6.398252 3.18478 6.398252 9.532821 28.641501 25.442375 47.685624 54.026493 60.403225 19.094334 6.362387 38.152803 9.583032 60.403225 15.909553 9.568686 0 22.322151-3.191953 35.039752-3.191952 6.340868-3.134569 12.717601-3.134569 19.094334-6.355215 12.122248-6.061124 25.18415-10.085136 37.306397-16.411658 5.853109-3.098705 11.935752-3.873381 17.387177-6.362387 13.241225-5.910493 22.953369-18.334003 33.669723-27.644464-5.006704 3.500389-5.300794 9.991888-8.758145 14.460622-7.230311 9.4324-19.166063 16.131915-29.17947 22.17152-12.014654 7.266176-24.617488 16.440351-38.970517 19.725552-2.704194 0.667082-9.60455 3.629501-11.462338 3.629501a6.842973 6.842973 0 0 0-6.376733 6.362387c3.18478 9.568686-3.148915 15.966937-9.532821 22.286287-9.525648 12.717601-22.279114 22.286287-31.77607 28.627155-12.717601 12.73912-19.094334 25.492585-22.250422 44.436287 9.525648-9.468265 22.250422-12.638699 31.740205-18.979567 9.568686-3.206299 19.137371-9.532821 28.66302-15.966937 3.148915-6.319349 6.340868-6.319349 3.148915-15.85217-3.148915-3.242163-6.383906-6.434116-3.148915-9.583032 3.220645-3.170434 6.340868 3.148915 9.525648 3.148915 3.227818 0 3.191953 3.191953 6.383906 3.191953 6.340868 3.242163 3.120224 0 3.120223-3.191953-3.120224-12.681736-6.305004-22.228903-9.496956-34.982368-3.18478 0-3.18478-3.170434-3.18478-6.376733 3.18478-3.148915 3.18478 0 3.18478 0l6.305003 6.376733c9.568686 6.398252 19.137371 15.902381 28.66302 25.45672 3.18478 6.376733 6.340868 12.717601 3.18478 19.079988-3.18478-3.120224-3.18478-3.120224-3.18478-6.362387-3.18478 3.242163-3.18478 6.362387-6.340868 6.362387-3.18478-3.120224 0-6.362387 0-9.55434 3.148915-3.148915 3.148915-6.319349 0-9.525648l-12.753466-12.703255c-3.18478-3.170434-3.18478-3.170434-6.376733-3.170434 3.18478 6.319349 6.376733 12.717601 6.376733 22.250422v15.902381c0 3.206299-3.18478 3.206299-6.376733 3.206299-3.120224-3.206299-6.305004-6.412597-9.496956-6.412598 3.120224 6.412597 0 12.731947-6.376733 15.959765-9.532821 12.73912-25.435202 19.079988-38.152803 25.399337l-19.094334 9.547167" fill="#683633" p-id="10297"></path><path d="M360.152705 764.504991c0-9.597377 0-15.959764-3.18478-22.358016a278.969508 278.969508 0 0 1-15.873689-25.413683 24.502721 24.502721 0 0 1-6.376733 25.413683 20.823009 20.823009 0 0 0 0 19.180409" fill="#683633" p-id="10298"></path><path d="M437.799648 626.705875c-7.933258 1.520661-14.690156 6.4915-22.551685 8.471228-17.796034 4.411351-33.999678 0.925308-51.315125-3.579291-31.037259-8.105408-58.803662-13.298608-79.275198-40.491178a84.941811 84.941811 0 0 1-15.464833-40.254471c-0.774676-6.039605-5.967876-35.49882 5.085606-35.498819h28.619982c3.18478 0 6.383906-3.148915 9.568686 3.227817-9.568686 3.170434-19.094334 3.170434-28.627155 9.583032-3.18478 0-6.376733 0-3.18478 6.319349 0 0-6.305004 3.170434 0 6.340868 0 6.376733 3.18478 15.866516 6.376733 22.300633 0 3.170434 3.148915 6.340868 6.348041 3.170434 3.18478 0 6.340868 3.170434 6.340868 3.170434 6.376733 9.547167 12.753466 9.547167 22.322151 9.547167h9.561513c8.822701-4.748478-9.561513 15.909554-19.130198 15.909554 0 3.191953-3.148915 0-3.148915 3.191953 0 3.170434 0 3.170434 3.148915 6.355214 12.710428 9.568686 25.471067 15.909554 41.344756 22.286286 12.717601 3.148915 22.279114 6.362387 34.968023 6.362387 16.748786-0.093248 32.543573-5.114298 49.012615-6.412597z m24.101038-133.581435c3.227818 0 0-3.206299 0-3.206298-22.250422 0-44.493671 3.206299-63.552141 12.753465-9.561513 3.170434-19.094334 3.170434-25.471066 6.340869-6.383906 0-12.717601-6.340868-15.909554-12.731947-3.18478-6.362387-3.18478-6.362387-9.489784-3.148916-6.383906 6.340868-12.753466 9.547167-15.945418 15.888035-6.383906-3.170434-12.688909-3.170434-15.909554-6.340868 6.376733-3.206299 12.710428-9.547167 19.094334-12.753465 9.525648-6.319349 19.058469-12.717601 31.77607-19.079988-3.148915 3.206299-3.148915 6.362387-3.148915 9.532821-3.18478 3.227818-3.18478 9.547167-3.18478 12.753465 0 3.148915 3.18478 9.547167 6.340868 9.547167 3.227818-3.206299 9.532821-3.206299 9.532821-9.547167V483.598792c3.220645 3.113051 3.220645 6.319349 3.220645 9.532821 3.148915 6.340868 3.148915 6.340868 9.489783 3.148916 0-3.148915 0-3.148915 3.148915-3.148916 9.568686 3.148915 15.988456-3.206299 22.322152-6.41977 9.525648-9.511302 22.250422-19.079988 31.819107-28.584117 0 12.717601-6.383906 22.250422-12.753465 31.797589a34.932158 34.932158 0 0 1 25.471066 0c3.148915 0 3.148915-3.206299 3.148916-6.31935 3.227818 3.113051 3.227818 6.319349 6.383906 6.31935 3.18478 0 3.18478-3.206299 6.376732-6.31935 3.191953-3.227818 3.191953-9.547167 6.348041-12.753465v12.753465c0 3.113051 0 6.319349 3.220645 3.113051 3.120224 6.41977-3.220645 6.41977-6.376733 9.568686-3.199126-3.163261-9.575859-0.007173-15.952591-3.163262z m0 0" fill="#E4BA9C" p-id="10299"></path><path d="M255.219944 375.45256c-6.383906 12.73912-9.532821 25.456721-12.717601 38.174322v9.532821a77.316989 77.316989 0 0 0 0 38.138457c3.148915 19.079988 6.340868 38.116938 12.717601 57.247137v6.376732a156.247886 156.247886 0 0 1-19.058469-54.083875c0-6.340868 0-9.547167-3.18478-12.717601-3.191953-12.681736-3.191953-28.59129-3.191953-41.33041a178.986067 178.986067 0 0 1 38.152803-98.556028c0-3.170434-3.148915-3.170434 0-3.170434 0-3.170434 3.148915-6.355214 6.41977-3.170434v6.376732l-9.640414 19.036951c-15.873689 19.101507-22.214557 44.500844-25.399338 66.765612-3.148915 9.547167-3.148915 19.079988-3.148915 28.648673 0-12.774984 3.148915-28.648674 6.340868-41.344755 3.18478-3.18478 3.18478-9.561513 6.340868-12.774985-0.014346-3.148915 3.177607-6.305004 6.36956-3.148915z m0 0" fill="#713931" p-id="10300"></path><path d="M315.802492 502.097773c7.861529 2.503352 17.136125 4.877591 15.651329 11.397782-1.965382 8.84422-15.457659 5.709651-21.432708 4.153126-5.48729-1.391548-53.165741 2.467487-35.67097-14.977074a25.148285 25.148285 0 0 1 25.363472-6.398251c3.18478 0 3.18478-3.148915 3.18478-3.148916 6.527364-9.84843 12.459376-19.99095 20.987987-28.254162a99.918884 99.918884 0 0 1 18.613748-13.047556c-4.518945 7.617649-13.198187 11.806639-19.309522 18.004049a92.351445 92.351445 0 0 0-17.10026 23.304842c-2.410104 4.77717 3.191953 6.921875 9.712144 8.96616z m0 0" fill="#693733" p-id="10301"></path><path d="M563.648667 343.633452c6.376733 6.376733 9.561513 9.568686 12.681736 15.9239 9.60455 3.170434 9.60455 12.774984 15.988456 19.079988 0 3.170434 3.18478 9.547167 3.18478 12.774984 0 3.148915 0 3.148915 3.148915 6.355214-3.148915-3.206299-3.148915-6.355214-3.148915-9.547167-3.18478-19.079988-12.717601-38.174322-25.47824-54.040838-3.18478-3.148915-6.376733-6.376733-6.376732-12.753465l-3.191953-3.148916c6.383906 0 6.383906 3.148915 9.568685 6.362387 12.753466 12.731947 19.058469 28.605636 25.47824 44.51519 3.148915 6.340868 3.148915 9.496956 6.340868 12.717601 3.18478 0 3.18478 6.355214 6.340868 9.547167 3.227818 9.511302 6.41977 22.228903 3.227818 34.982369 0 28.641501-6.383906 54.004973-19.094334 76.305606l-9.532821 19.079988v-3.170434c3.148915-9.561513 3.148915-15.909554 6.305004-25.456721v-9.547167s0-3.206299 3.227817-3.206299v3.206299l3.18478 3.13457c9.525648-15.873689 15.909554-76.255395 3.148915-98.556028 3.18478 9.547167 0 19.079988 0 31.797589-3.148915-6.340868-3.148915-12.717601-3.148915-19.05847-6.41977-15.909554-12.717601-31.77607-22.286287-44.479325L563.648667 346.882788v-3.249336z m0 0" fill="#6A3934" p-id="10302"></path><path d="M512.77109 505.842041c-6.376733 0-9.489783-3.170434-9.489784-9.561512 0-3.148915-3.18478-6.362387-3.18478-12.681737 0 0 3.18478-3.227818 0-6.398251-3.263682 0-3.263682 3.170434-3.263682 3.170434-3.120224 3.227818-3.120224 3.227818-6.305003 3.227817 3.18478-6.398252 9.568686-9.547167 12.753465-15.966937 0 6.41977 3.120224 12.73912 3.120224 15.966937 0 9.525648 6.36956 15.866516 6.36956 22.243249z m0 0" fill="#DEAD8C" p-id="10303"></path><path d="M525.531728 559.925917c3.148915-12.753466 3.148915-28.663019-6.376733-41.344756 0-3.227818-3.191953-9.568686-6.383905-12.73912 6.383906 0 6.383906 3.170434 6.383905 9.511303 3.18478 3.227818 3.18478 6.398252 6.376733 9.583031 3.148915 6.362387 3.148915 12.717601 3.148916 19.094334v15.931073l-3.148916-0.035865z m0 0" fill="#E1B597" p-id="10304"></path><path d="M611.40602 426.358829c0-12.73912-3.227818-25.456721-6.383906-38.174322-3.18478-9.547167-9.525648-12.703255-12.710428-19.101507-3.227818-15.888035-12.753466-31.77607-22.286287-44.493671-3.18478-3.206299-3.18478-6.362387-9.568685-6.362387-3.141742-3.170434-6.297831-3.170434-9.525648-6.376733 0-3.148915-3.220645-3.148915-3.220645-6.340868h6.448462c9.489783 6.340868 19.051296 12.717601 25.399337 22.250422 3.220645 3.170434 6.376733 9.547167 12.753466 15.866516 0-3.170434-3.227818-9.475438-3.227817-12.703255-6.305004-15.902381-12.753466-31.797589-25.435202-47.69997 0-3.206299-3.191953-3.206299-6.340869-3.206298-9.60455-6.340868-19.137371-9.511302-25.478239-12.681737h-6.305004c6.305004 9.547167 19.058469 6.340868 19.05847 19.036951-6.41977 0-9.568686-3.148915-15.945419-6.355214 0 0-3.120224-3.134569-3.120224 0v9.525648c9.489783 12.717601 12.645872 28.648674 15.87369 41.344755 0 3.170434 3.18478 6.376733-3.227818 6.376733l-3.148915-3.170434c0-6.376733-6.376733-12.753466-12.710428-22.286286v19.079987c0 6.376733 0 12.717601 3.220644 19.094334 0 3.148915 0 6.362387-3.220644 6.362387-3.148915 3.148915-3.148915-3.148915-3.148916-3.148915-6.383906-25.435202-12.753466-44.493671-31.819107-63.609524-3.148915-3.148915-6.383906-3.148915-9.532821 0-6.340868 6.362387-12.681736 9.547167-22.279114 12.717601 3.220645-9.547167 9.60455-15.9239 12.753466-22.279114l9.568685-9.511302c0-3.170434-3.191953-3.170434-3.191953-3.170434-12.753466 3.170434-19.130198 9.547167-28.619982 19.03695l-12.753465 12.753466c-3.148915 0-3.148915 3.170434-6.383906 3.170434 0-3.170434 0-3.170434 3.191953-6.340868l28.655847-38.195841c6.383906-9.511302 15.909554-19.058469 31.783243-15.888035 3.18478 0 3.18478 0 6.305003-3.170434h3.263682c0 3.170434 3.18478 3.170434 3.18478 6.355214h3.120224c22.279114-3.148915 41.308891 0 60.43909 12.717601 0 3.18478 3.18478 3.18478 3.184779 6.376733 3.18478 3.170434 3.18478 6.340868-3.184779 3.170434 3.18478 3.170434 3.18478 6.340868 6.376732 9.547167 0 0 3.120224 3.134569 0 6.340868 0 3.148915 3.120224 3.148915 3.120224 6.31935 9.60455 12.717601 15.988456 28.648674 22.322151 44.551054 6.376733 22.250422 12.753466 41.344756 15.945419 63.631043v3.170434c0 6.340868 0 12.717601-3.18478 19.03695v6.434117z m0 0" fill="#7E3C31" p-id="10305"></path><path d="M611.40602 419.946231v-19.03695c0-12.717601 0-22.300633-3.227818-34.968023-3.148915-28.627155-15.866516-54.083876-31.847799-76.348644l-6.305004-6.340868c6.305004 0 6.305004-3.191953 3.18478-6.319349a43.396213 43.396213 0 0 1-9.561512-12.717601c3.18478 0 6.376733 6.340868 6.376732 3.170434 3.18478-3.170434-3.18478-3.170434-3.184779-6.340869-12.681736-9.561513-25.435202-19.115853-41.308892-19.115852-6.376733-3.170434-9.568686 0-15.945418 0-3.18478 0-6.305004 3.148915-9.489784 0v-3.170434c22.250422-6.376733 44.493671-3.170434 60.360188 12.717601 12.753466 9.561513 22.322151 22.279114 22.322151 38.152803 3.148915 3.18478 3.148915 3.18478 3.148915 6.376733 28.663019 38.174322 38.152803 76.348644 28.66302 124.012748 0.007173-0.071729 0.007173-0.071729-3.18478-0.071729z m0 0" fill="#6A3934" p-id="10306"></path><path d="M334.717503 763.472089v-6.426943c-6.383906-6.362387-3.18478-9.568686-3.18478-15.873689 6.340868-9.561513 9.561513-19.130198 6.340868-31.8478 6.340868 3.206299 9.525648 9.532821 12.710428 12.717601 0 3.206299 3.148915 9.568686 6.348041 12.753466 6.340868 9.568686 6.340868 15.888035 3.148916 25.442375m85.953193-114.494274c-3.18478 0-6.383906-6.355214-9.568685-9.525648 3.18478 9.525648 6.383906 12.731947 6.383906 19.079988 6.305004 9.561513 6.305004 19.115853 6.305003 28.684538 0 3.170434 3.18478 3.170434 0 6.31935-3.120224 0-3.120224-3.148915-3.120224-3.148915 0-9.60455-3.18478-19.130198-6.383905-28.684539-6.305004 15.945419-22.250422 22.300633-31.77607 31.833454-3.148915 3.206299-9.532821 6.398252-12.717601 9.547167-6.376733 3.242163-12.710428 12.731947-12.710428 22.250422 12.710428-3.148915 25.471067-9.511302 38.152802-15.837825 3.18478-3.170434 3.18478-6.412597 9.561513-3.170434-6.376733 9.489783-19.058469 12.717601-28.619982 15.852171-9.568686 6.398252-22.250422 9.547167-31.819107 22.300632 0-28.663019 6.376733-34.982369 22.250422-50.913441 12.753466-6.319349 22.250422-15.902381 31.819107-25.435202a28.871034 28.871034 0 0 0 9.561513-22.264768c0-6.355214 3.148915-6.355214 6.305004-6.355214 3.18478 3.113051 3.18478 6.319349 6.376732 9.468264z m0 0" fill="#3B2769" p-id="10307"></path><path d="M255.219944 375.45256c-9.532821 6.362387-9.532821 15.9239-12.717601 25.456721-3.18478 12.717601-3.18478 25.456721-6.340868 38.116938-3.227818-3.113051-3.227818-9.489783-3.227818-12.660218 3.227818-25.456721 6.383906-47.757353 15.909554-69.950391 3.18478-6.398252 6.383906-9.55434 9.568686-12.774985 6.305004-9.475438 6.305004-19.03695 12.681736-25.399337 3.191953-3.170434 3.191953-3.170434 3.191953-6.376733-3.191953 0-3.191953 0-6.383906 3.170434-3.18478 0 0 3.170434 0 3.170434-3.18478 0-6.376733 3.148915-12.681736 6.355214 0 0-3.191953 3.170434-6.383906 3.170434-3.148915 0-3.148915-3.170434-3.148915-6.376733 6.340868-6.319349 9.532821-12.66739 15.909554-19.079988 3.120224 0 3.120224-3.170434 6.340868-3.170434 3.227818 0 3.148915-3.148915 6.41977-3.148915 6.305004 0 9.489783-3.191953 12.681737-6.398252 6.348041-3.170434 15.873689-6.319349 22.257595-9.525648 3.18478 0 6.340868-3.134569 6.340868 0 0 3.206299 0 3.206299-3.148915 6.355214-12.753466 12.753466-15.909554 15.9239-19.094334 38.174322 3.18478-6.355214 6.340868-12.731947 12.710428-15.866516a62.734427 62.734427 0 0 1 35.003888-19.094334l-9.561513 19.094334s-3.191953 3.134569 0 6.340868c3.18478 0 6.340868-3.170434 6.340868-3.170434 9.525648-9.547167 19.094334-15.888035 31.847799-22.264768 0 0 3.148915-3.148915 3.148916 0 0 3.170434 0 3.170434-3.148916 3.170434a208.201402 208.201402 0 0 0-47.721488 57.247137c-12.351782 21.805701-3.148915 3.191953-6.376733 3.191953s0-3.191953 0-6.340868c-3.148915-6.398252 0-12.703255 3.148915-19.094334a32.586611 32.586611 0 0 0-19.058469 15.866516 295.295092 295.295092 0 0 0-15.873689 25.456721c-3.18478 3.206299-3.18478 6.362387-6.376733 3.206299v-3.206299c0-6.355214 0-15.888035 3.18478-22.264768v-6.405425c-3.18478 0-3.18478 3.18478-3.18478 3.18478l-19.058469 19.079988c-3.199126 3.249336-0.014346 9.60455-3.199126 12.760639z m190.814225-124.012749c-19.137371 6.340868-31.819108 19.079988-41.387793 38.152803-3.18478 0-3.18478 3.170434-3.18478 3.170434-3.120224 0-3.120224-3.170434-3.120223-3.170434 3.120224-6.340868-3.18478-9.532821-3.18478-12.703255-3.18478-6.376733 0-9.547167 3.18478-12.717601 6.305004-12.73912 19.058469-19.101507 28.627154-25.456721 12.681736-9.547167 28.548253-9.547167 41.308892-9.547167 3.18478 0 3.18478 0 0 3.170434-9.532821 3.227818-12.753466 12.73912-22.24325 19.101507z m0 0" fill="#7E3C31" p-id="10308"></path><path d="M468.277419 229.175043c-9.532821 3.170434-19.058469 0-25.435202 3.170434-22.250422 9.547167-41.387793 22.250422-47.721489 44.551055-3.148915 0-3.148915 6.340868-6.383906 6.340868-3.148915-3.206299 0-6.340868 0-9.547167 0-6.340868 6.383906-12.703255 9.532821-19.094334 9.60455-9.511302 19.130198-15.866516 31.8478-22.250422 0 0 0-3.170434 3.148915-3.170434-9.532821-3.170434-15.909554 0-25.435202 0a106.876624 106.876624 0 0 0-38.116938 19.094334c-11.347572 8.84422-3.227818 3.134569-6.383906 0 0-3.191953 3.148915-6.376733 6.383906-6.376733 6.305004-6.319349 15.866516-12.717601 25.399337-12.717601 9.525648-3.170434 19.094334-6.376733 28.619982-6.376733 15.916727-3.156088 31.790416 0 44.543882 6.376733z m0 0" fill="#915334" p-id="10309"></path><path d="M369.721391 241.892644c-3.227818 3.18478-3.227818 6.376733-6.383906 6.376733-9.561513 6.319349-15.866516 15.866516-25.435202 25.413683l-6.305004 6.340868c3.120224-9.511302 12.645872-19.044123 15.87369-25.435202-9.568686 6.398252-19.137371 15.9239-31.819108 22.300633 3.18478-12.717601 9.489783-15.909554 15.945418-25.456721 0-3.134569 6.305004-6.362387 9.489784-9.511302 9.568686-6.340868 19.094334-6.340868 31.819108-9.55434v3.206299c-0.035865 3.148915-6.412597-0.007173-3.18478 6.319349z m0 0" fill="#7F3E32" p-id="10310"></path><path d="M496.832844 238.72221c0 3.170434 0 6.355214-3.120223 6.355214-9.525648-3.148915-19.094334 0-28.619982 6.362387 0 3.148915-3.191953 3.148915-6.383906 6.362387-9.489783 3.18478-15.866516 9.547167-25.435202 12.717601 3.18478-6.340868 6.376733-9.532821 9.568686-12.717601 6.305004-3.148915 12.681736-12.717601 22.279113-12.717601 0-3.148915-3.227818 0-3.227817-3.148915l3.227817-3.206299c9.532821-9.55434 28.59129-9.55434 31.711514-0.007173z m0 0" fill="#905134" p-id="10311"></path><path d="M341.094236 241.892644c0 6.376733-6.376733 6.376733-9.561513 9.511303-9.532821 6.376733-15.873689 12.73912-22.250422 19.115852-9.568686 9.511302-19.101507 12.717601-28.627155 22.250422 0 0-3.18478 0-6.305003 3.191953-3.18478 3.148915-6.41977 6.319349-9.568686 6.319349-3.18478 3.18478-3.18478 3.18478-3.18478 0 9.489783-9.511302 19.058469-15.888035 31.783243-22.250422 6.340868-6.340868 9.525648-15.888035 19.094334-19.044123 9.525648-6.398252 19.058469-15.909554 28.619982-19.094334z m0 0" fill="#8E5132" p-id="10312"></path><path d="M550.96693 531.255725c0 3.191953 3.227818 6.376733 3.227818 9.532821 3.148915 6.376733 6.340868 15.866516 6.340868 22.286286-3.18478 12.753466-19.094334 19.094334-28.627155 12.753466-3.220645-3.206299-3.220645-6.398252-3.220644-12.753466v-3.148915c6.376733-3.263682 12.753466-12.753466 12.753465-22.286287 3.148915-6.383906 6.333695-6.383906 9.525648-6.383905z m0 0" fill="#EAD9C8" p-id="10313"></path><path d="M528.680644 556.655062v-12.645872c0 3.156088 3.220645 9.518475 0 12.645872z m0 0" fill="#7E3C31" p-id="10314"></path><path d="M461.900686 585.361119h-3.148916c0-3.191953 3.148915-3.191953 6.383906-3.191953 6.340868 0 15.873689-3.18478 19.094334-9.547167 3.120224-3.18478 3.120224-3.18478 6.305004-3.18478 3.227818 0 9.60455 3.18478 9.60455 6.398252 3.148915 6.340868 3.148915 9.532821 0 15.888035-3.227818 6.319349-9.60455 3.191953-15.909554 6.319349-6.376733 3.191953-15.945419 0-19.094334-9.475437-0.007173 0-0.007173-3.206299-3.23499-3.206299z m0 0" fill="#E4BA9C" p-id="10315"></path><path d="M451.370828 585.361119c3.18478 3.206299 13.757676 6.355214 16.906591 9.547167 6.376733 3.134569 12.717601 6.319349 15.945418 3.134569 6.305004 0 19.058469-6.484327 22.250422-3.263682-15.945419 9.532821-47.678451 28.71323-66.815822 31.926702h-3.18478c9.568686-6.398252 22.279114-9.561513 34.968023-15.945419h3.18478c0-3.170434 6.340868-3.170434 6.340868-9.532821 0-3.206299-6.340868 0-6.340868-3.206298-6.340868-3.148915-4.784343-6.340868-7.933258-12.703255h-15.314201v0.043037z m0 0" fill="#E4BA9C" p-id="10316"></path><path d="M500.096526 591.680468c6.305004-12.73912-3.263682-19.101507-9.568685-22.322151-3.18478-3.148915-3.18478-3.148915 0-6.319349 0 3.170434 0 6.319349 3.18478 6.319349 6.383906 3.227818 9.568686 6.434116 9.568685 15.966937l3.120224 3.227818c0 3.127397-3.120224 3.127397-6.305004 3.127396z m15.866517-9.511302c6.383906-6.340868 6.383906-15.945419 9.568685-22.250422 0 9.518475 0 19.065642-9.568685 22.250422z m0 0" fill="#E1B597" p-id="10317"></path><path d="M442.842217 760.229926c3.18478-19.065642 3.18478-38.181495 9.525648-57.218445 0-6.362387 0-9.532821 3.148915-12.753466 3.220645-6.319349 3.220645-12.731947 0-22.286286 0 0-3.148915-3.148915-3.148915-6.31935 0-3.227818 0-6.398252 3.148915-3.227817 6.376733 3.227818 9.60455 9.547167 15.945419 12.753465 3.18478 3.191953 3.18478 6.340868 0 9.547167-3.18478 3.206299-3.18478 6.398252-3.18478 9.532821 0 3.227818-3.148915 6.398252-3.148916 9.547167 3.148915-3.148915 0-9.547167 3.148916-9.547167 3.18478-3.134569 3.18478-6.319349 6.376732-9.532821 3.191953 3.206299 0 6.398252 3.191953 9.532821 0 9.547167 3.148915 19.079988 3.148916 31.797589m-114.501447 41.416485c6.383906-12.78933 12.753466-22.300633 25.47824-28.677365 9.489783-3.18478 15.909554-3.18478 22.250422 6.376733" fill="#343073" p-id="10318"></path><path d="M318.843814 394.546894c0-3.170434 3.148915-3.170434 3.148915-3.170434h3.120224c19.130198-12.774984 41.38062-19.079988 57.283001-34.968023 3.18478-3.206299 6.340868-9.55434 6.340868-12.774985 0-3.206299 0-3.170434 3.148916-3.170434v3.170434c0 12.774984-3.148915 19.101507-12.681737 28.698884-9.489783 6.269139-22.250422 12.645872-31.740205 15.852171 9.489783 3.18478 15.866516 0 22.250422-3.170434 3.148915-3.148915 6.305004-3.148915 9.525648-6.376733h6.340868c0 3.170434 0 3.170434-3.18478 6.376733 0 3.170434-3.148915 3.170434-6.376733 6.398251 6.376733 3.148915 12.710428 0 28.619982-12.774984 9.568686-6.305004 19.094334-15.873689 25.47824-22.228903 6.340868-9.583032 12.717601-19.101507 15.909554-31.854973v6.340868c0 12.717601-3.18478 25.456721-12.753466 35.003888-12.681736 9.547167-22.250422 22.286287-38.152803 28.641501-9.532821 6.362387-19.094334 6.362387-28.627155 9.532821-9.525648 0-15.866516 3.170434-19.015432 6.362387-3.227818 0-3.227818 3.18478-6.383905 3.18478 0-3.18478 0-3.18478 3.148915-6.376733 3.227818-3.170434 0-6.340868-3.148915-6.340868-9.561513 0.007173-15.945419-3.163261-22.250422-6.355214z m0 0" fill="#783A32" p-id="10319"></path><path d="M563.648667 321.390203c15.909554 19.079988 28.663019 38.174322 31.847799 63.631043v3.170434c0 3.18478 3.148915 6.355214 0 6.355214a75.444855 75.444855 0 0 0-19.173236-34.982369c0-9.547167-6.305004-19.094334-12.681736-25.399338-3.191953-6.398252-9.489783-12.774984-15.945419-19.094333-3.120224 0-3.120224-3.170434-3.120223-3.170434 3.120224-3.134569 3.120224 0 6.340868 0 3.227818 3.170434 6.383906 3.170434 6.383906 6.376732 3.156088 3.113051 3.156088 3.113051 6.348041 3.113051z m0 0" fill="#915334" p-id="10320"></path><path d="M538.206292 334.107804h-3.148916c0-3.170434-3.148915-6.376733-6.376732-6.376733-3.148915 3.170434 0 6.376733 0 9.547167 0 9.489783 3.220645 19.079988-3.148916 25.413683 0 3.206299 0 3.206299-3.18478 6.376733v-6.376733c-3.18478-3.18478-6.383906-3.18478-6.383905-9.489783h3.191952s0 3.206299 3.18478 3.206299v-22.250422c-3.18478-6.426943-3.18478-12.774984-3.18478-19.130199 0-3.170434 0-3.170434 3.18478-3.170434h3.18478c3.156088 6.376733 9.532821 15.873689 12.681737 22.250422z m0 0" fill="#894831" p-id="10321"></path><path d="M306.090348 308.686948c-6.376733 3.170434-9.525648 9.547167-12.710428 15.866516 0-19.094334 9.525648-31.833454 22.279114-44.529536 6.383906 0 6.383906 3.206299 3.18478 6.355214-3.18478 3.206299-9.561513 9.568686-12.753466 15.9239v6.383906z m0 0" fill="#905334" p-id="10322"></path><path d="M490.527841 563.074832v6.362387c-9.568686 12.731947-19.094334 15.9239-31.819108 15.9239-19.058469-6.376733-25.435202-12.73912-25.435202-34.982369-3.18478 0-3.18478 3.227818-6.383906 3.227818 0 3.098705-3.18478 3.098705-3.18478 3.098705-3.148915-3.098705 0-3.098705 0-6.31935 15.945419-19.079988 41.387793-28.627155 63.631043-12.717601 6.376733 3.170434 9.489783 6.376733 15.945418 12.717601 3.120224 0 3.120224 3.227818 3.120224 6.31935-3.120224 0-6.305004 3.263682-6.305004 0-3.263682 0-6.383906-3.098705-9.568685-3.098705v9.468264zM331.532723 578.984386c-15.909554 3.18478-28.627155 0-38.152803-12.753465-3.148915-3.148915-6.348041-12.703255-3.148915-22.214558v-6.376733c-3.148915 0-6.383906 3.148915-9.532821 3.148916s-6.340868 0-3.148916-3.148916c0-3.18478 3.148915-3.18478 3.148916-3.18478 22.250422-15.909554 50.913442-3.191953 63.595178 12.717601 3.18478 3.170434 3.18478 15.909554-3.191953 22.264768-3.199126 6.391079-6.383906 6.391079-9.568686 9.547167z m130.439692-85.264593c9.489783-1.190706 19.130198 3.134569 25.736465 9.84843 2.295337 2.280991 7.036642 7.194447 4.999531 10.881332-2.704194 4.94932-18.836108 1.76454-23.462647 1.814751-9.01637 0.222361-65.818786 13.104939-42.348966-10.422265 11.90706-2.969592 23.290497-10.658971 35.075617-12.122248z m0 0" fill="#693733" p-id="10323"></path><path d="M376.026394 591.680468c-6.305004 0-12.688909-6.362387-9.532821-12.739119 0-6.362387 3.227818-12.731947 6.383906-19.058469 0-3.263682 0-3.263682 3.148915-3.263683v3.263683c0 6.326522-3.148915 12.703255-3.148915 15.909553 0 3.148915 0 6.362387 6.376733 9.532821 0 0 3.148915 0 3.148915 3.227818 0 3.127397-3.156088 3.127397-6.376733 3.127396z m0 0" fill="#6B3B33" p-id="10324"></path><path d="M423.74071 518.581161c15.909554 0 31.783243-3.227818 47.721489-3.227817a20.40698 20.40698 0 0 1 19.058469 0c6.010913 3.18478 3.227818 0 3.227817-3.148916 0 6.376733-3.227818 6.376733-6.41977 6.376733h-22.214558c-9.60455 0-19.094334 0-28.663019 3.170434-3.177607 0-6.326522 0-12.710428-3.170434z m0 0" fill="#DEAF8F" p-id="10325"></path><path d="M417.399842 750.675586c-9.525648-19.072815-19.058469-19.072815-34.96085-9.511302-6.348041 3.191953-6.348041 9.511302-12.717601 15.873689 0 0 0 3.191953-3.18478 6.426943 0-15.995629 9.561513-25.542796 19.094333-31.862145 9.525648-3.206299 15.909554-6.362387 25.471067-9.568686 6.348041-3.18478 12.688909-9.511302 19.058469-12.717601 12.717601-9.547167 12.717601-9.547167 6.340868-25.420856l9.532821 9.511303c3.18478 0 3.18478 3.206299 6.376733 3.206298 3.191953-3.206299 0-3.206299 0-6.376733 3.191953-12.753466 0-22.300633-3.148915-34.982368 0 0-3.148915-3.148915-3.148915-6.31935 6.348041 3.170434 6.348041 6.319349 9.532821 9.489784-3.18478 0-3.18478 0 0 3.227817 0 3.170434 0 6.319349 3.18478 9.532821 3.148915 6.340868 3.148915 12.753466-3.18478 19.079988-3.18478 9.547167-3.18478 22.300633-6.340868 34.982369-3.191953 12.660218-3.191953 25.435202-6.348042 34.946504-3.141742 0-3.141742-3.18478-3.141742-3.18478-3.191953-6.362387-3.191953-12.688909-6.383906-19.101506 0 0 0-3.148915-3.148915-3.148916-3.148915 3.148915-6.376733 3.148915-6.376733 6.405425 3.148915 9.489783 6.376733 15.85217 9.525648 22.250422" fill="#372A6F" p-id="10326"></path><path d="M430.124616 703.011481c-9.525648 3.206299-19.094334 12.753466-28.66302 15.909554-6.305004 0-12.681736 3.134569-15.873689 3.134569-3.18478 3.227818-3.18478 3.227818-3.18478 0 0-15.830652 9.568686-22.250422 19.058469-31.797589 12.753466-6.319349 22.279114-12.731947 31.883664-25.435202 0-3.170434 3.148915-6.398252 6.305004-9.561512 3.191953 9.561513 6.383906 15.9239 9.568685 25.471066 0 3.206299-3.18478 3.206299-3.18478 6.398252-6.340868-3.191953-9.532821-6.398252-15.873689-9.604551 0 3.206299 3.18478 6.412597 3.18478 12.731947 3.120224 6.398252 3.120224 9.547167-3.220644 12.753466z m0 0" fill="#333273" p-id="10327"></path><path d="M315.659034 728.396472c6.383906-19.079988 3.18478-38.138457 12.681736-57.218445 0-3.206299 0-3.206299 3.191953-6.362387 3.18478 0 3.18478-3.170434 6.340868 0v3.148916c-3.148915 3.206299-3.148915 6.398252-3.148915 9.554339 0 15.959764 0 28.698884 3.148915 44.51519 0 0 0 3.206299-3.148915 3.206299-6.383906 3.148915-6.383906 9.547167-9.568686 12.688909v3.234991h-3.113051c-3.199126-3.23499-6.383906-9.561513-6.383905-12.767812z m0 0" fill="#382C6E" p-id="10328"></path><path d="M372.870306 677.526068c0 3.206299 0 9.60455 3.148915 15.959765 0 6.319349 0 9.532821-3.148915 12.73912-3.148915 3.113051-6.383906 0-6.383906 0-6.340868-6.41977-12.710428-12.73912-12.710428-22.286287 3.18478-3.206299 3.18478-3.206299 0-3.206299h-3.148915c-3.148915 0-3.148915-3.206299 0-6.355214 0-9.55434 6.340868-19.115853 15.866516-25.435202 0-3.227818 3.227818-3.227818 3.227818-3.227817 3.148915 3.227818 3.148915 3.227818 3.148915 6.398251v25.413683z m0 0" fill="#313374" p-id="10329"></path><path d="M353.775972 680.725194c3.18478-3.206299 3.18478-3.206299 3.18478 3.206299 0 9.547167 3.148915 19.079988 15.909554 22.286287-6.383906 9.547167-6.383906 19.058469-9.532821 31.733032-6.376733-3.148915-6.376733-9.539994-9.561513-12.681736 0-3.227818-3.148915-6.355214-3.148915-9.511302-9.532821-9.547167-6.383906-19.115853 0-28.641501 0 0.007173 3.148915-3.177607 3.148915-6.391079z m0 0" fill="#382A6E" p-id="10330"></path><path d="M391.971813 664.822813c-6.383906 0-9.568686-3.170434-12.717601-6.398251-6.376733-9.489783 0-19.079988 12.717601-15.852171 9.489783 0 19.058469 0 31.77607-3.227817 6.383906-3.170434 9.532821 0 6.383906 9.583031-3.148915-3.227818-3.148915-6.362387-6.383906-3.227817-6.340868 3.227818-15.866516 6.398252-22.279114 9.547167h-3.120224c-0.007173 9.575859-0.007173 9.575859-6.376732 9.575858z m0 0" fill="#DFAB86" p-id="10331"></path><path d="M372.870306 677.526068c-3.148915-9.55434 0-15.873689 0-25.420856 0 0 0-3.170434-3.148915-6.398251-3.227818 0-3.227818 3.227818-3.227818 3.227817-6.340868 9.489783-12.710428 15.888035-15.866516 25.435202v6.355214a6.842973 6.842973 0 0 1-6.383906 6.398252c-6.340868-3.191953-6.340868-9.60455-3.148915-12.753466 3.148915-15.945419 12.688909-25.435202 22.250422-31.797589 3.148915-3.227818 3.148915-3.227818 6.383906-3.227817 3.148915 0 6.305004-3.170434 9.525648 0 0 3.227818-3.220645 6.362387-3.220645 9.583031-3.148915 0-3.148915 3.170434-3.148915 6.31935v22.279113z m0 0" fill="#3B276A" p-id="10332"></path><path d="M390.630475 664.29919s3.486043 0 3.486043-3.206299c3.414314 0 6.900357 0 3.414314-6.362387-3.414314 0-3.414314-3.191953 0-3.191953 13.79354 0 20.693897-6.355214 34.408534-9.532821v6.398252c-3.414314 9.532821-10.307497 15.888035-20.614994 15.888035a23.527203 23.527203 0 0 1-20.693897 0.007173z m0 0" fill="#DFAB86" p-id="10333"></path><path d="M337.902283 699.805182v-9.547167s-3.18478-3.134569 0-3.134569h3.18478c0 3.134569 3.148915 3.134569 3.148915 6.355214-3.141742 0.007173-3.141742 3.177607-6.333695 6.326522z m0 0" fill="#3D2966" p-id="10334"></path><path d="M328.333597 741.164284c0-6.376733 3.191953-9.561513 9.568686-15.9239-3.18478 6.362387-6.36956 12.688909-9.568686 15.9239z m0 0" fill="#7A6E77" p-id="10335"></path><path d="M468.277419 690.258015c0 3.227818 0 6.398252-3.148916 9.547167 0-3.148915 0-6.319349 3.148916-9.547167z m0 0" fill="#683633" p-id="10336"></path><path d="M280.655146 540.788546a24.387955 24.387955 0 0 1 15.909554-6.340868c-6.340868 9.561513-9.532821 22.207384-3.18478 31.77607-3.148915 6.398252-6.348041 6.398252-9.532821 0-3.191953-9.568686-3.191953-15.888035-3.191953-25.435202z m0 0" fill="#EAD9C8" p-id="10337"></path><path d="M296.5647 578.984386v6.376733c-3.18478 0-3.18478 0-3.18478-3.191953-0.007173 0-0.007173-3.18478 3.18478-3.18478z m0 0" fill="#EBD9D4" p-id="10338"></path><path d="M306.090348 588.567418s-3.148915 0-3.148915-3.206299l3.148915-3.191953 3.191953 3.191953c0 3.206299 0 3.206299-3.191953 3.206299z m0 0" fill="#ECDED6" p-id="10339"></path><path d="M595.503639 394.546894v-6.355214c3.148915 3.18478 0 6.355214 3.148915 9.547167-3.148915 0-3.148915-3.191953-3.148915-3.191953z m0 0" fill="#7E3C31" p-id="10340"></path><path d="M576.330403 289.592614c12.753466 9.547167 19.173236 25.471067 25.514104 41.344756 9.568686 22.264768 12.753466 44.51519 9.568686 69.971911 0-9.532821 0-19.094334-3.227818-25.456721-6.340868-25.456721-12.681736-47.721489-22.250422-69.936046-3.156088-6.376733-9.60455-9.561513-9.60455-15.9239z m0 0" fill="#905134" p-id="10341"></path><path d="M500.096526 241.892644c25.435202-6.319349 50.834539 0 66.744094 19.094334-6.383906 0-6.383906-3.18478-9.525649-6.398252a132.986081 132.986081 0 0 0-50.913441-9.511302c-3.120224 3.191953-6.305004 3.191953-6.305004-3.18478z m0 0" fill="#915334" p-id="10342"></path><path d="M337.902283 760.229926a9.719317 9.719317 0 0 0 0-12.760639c0-3.113051 0-6.305004 3.18478-6.305003 6.383906 0 3.148915 3.191953 3.148915 6.305003 0 9.568686 6.383906 12.760639 12.717601 12.760639" fill="#343073" p-id="10343"></path><path d="M356.967925 760.229926c-9.489783 3.23499-12.717601 0-12.717601-12.760639 3.227818-3.113051 6.383906-6.305004 9.532821-3.11305v3.11305c-3.148915 0-3.148915 0-3.148915 3.206299v3.206299c3.148915 0 3.148915 0 3.148915-3.206299 3.18478 0 0-3.206299 3.18478-6.319349 6.36956 3.113051 3.18478 9.532821 0 15.873689z m0 0" fill="#613733" p-id="10344"></path><path d="M356.967925 744.356237v6.319349c0 3.206299 0 6.362387-3.18478 6.362387-3.148915 0-6.305004 0-6.305004-3.148915 0-3.206299 0-6.41977 3.148916-9.525648h6.340868z m0 0" fill="#342D43" p-id="10345"></path><path d="M550.96693 569.437219c-3.18478 3.18478-3.18478 3.18478-6.376733 0-3.148915 0-3.148915-3.206299 0-3.206298 3.18478-6.305004 0-12.703255 0-19.05847 6.376733 0 9.60455 3.170434 9.604551 9.489784-0.035865 6.412597-3.227818 9.561513-3.227818 12.774984z m0 0" fill="#DEAF89" p-id="10346"></path><path d="M550.96693 569.437219s-6.376733 3.18478-3.18478 0c3.18478-3.206299 3.18478-6.362387 6.419771-9.511302 0-6.398252-3.227818-9.583032-9.604551-12.753466 3.18478-3.148915 3.18478-3.148915 6.376733 0 3.227818 0 6.383906 3.170434 6.383906 9.489784-0.05021 6.412597-3.199126 9.561513-6.391079 12.774984z m0 0" fill="#714337" p-id="10347"></path><path d="M493.712621 582.169166s3.120224 0 3.120223 3.191953l-3.120223 3.206299c-3.18478 0-3.18478-3.206299-3.18478-3.206299 0-3.191953 0-3.191953 3.18478-3.191953z m0 0" fill="#EEE5E1" p-id="10348"></path><path d="M387.18747 613.17056c21.547475 0 28.88538-9.303287 28.88538-9.303287-7.639168 11.605797-17.946665 16.791824-29.222508 16.791824-11.046309 0-20.987987-4.985185-28.584117-16.146261 0.028692 0 7.337905 8.657724 28.921245 8.657724z m0 0" fill="#7E3C31" p-id="10349"></path><path d="M276.207931 676.650971s135.2599 47.183519 230.631147 8.026506c-4.303757 62.892231-95.514707 115.0968-95.514706 115.0968l-102.042071-23.735218s-50.583487-87.244321-33.07437-99.388088z" fill="#E03533" p-id="10350"></path><path d="M840.925364 299.720788c14.826442 0 22.530166 0.796195 23.060963 2.388585 0 0.53797-0.272571 1.334165-0.789022 2.388585-1.59239 4.253546-2.661156 10.085136-3.18478 17.494771-0.530797 5.838763-0.789022 17.774515-0.789022 35.79291h42.155296c12.717601 0 20.40698-0.265398 23.068136-0.796195v15.909554c-2.13036-0.523624-9.819738-0.796195-23.068136-0.796195h-42.155296c1.585217 19.087161 4.497426 36.065481 8.750971 50.906268 11.656008-14.840788 19.883356-28.634328 24.660526-41.366274 12.186804 5.838763 18.556364 9.547167 19.087161 11.139556 0 1.068766-1.068766 2.123187-3.177607 3.177607-2.661156 1.59239-4.511772 3.177607-5.566192 4.77717a35.362534 35.362534 0 0 1-3.18478 4.769997c-8.485574 12.724774-16.971147 23.068136-25.442375 31.022913 7.409634 13.262744 17.2222 22.264768 29.430523 27.041938 3.170434 0 5.286448-7.682206 6.362387-23.068136 6.362387 6.893184 12.44503 11.404955 18.298139 13.520969-5.845936 19.610785-11.419301 29.430523-16.705749 29.430523-16.447523 0-32.880701-11.928579-49.313879-35.79291a247.257994 247.257994 0 0 1-39.766711 23.864331 39.415238 39.415238 0 0 0-12.724774-11.928579l-1.59239-0.796195a147.468223 147.468223 0 0 0 46.925293-24.653353 223.321934 223.321934 0 0 1-10.336189-62.038652h-40.562906v28.634327c7.416807-1.59239 15.636983-4.2392 24.660526-7.954777 2.64681-0.523624 4.497426-1.05442 5.566191-1.59239l-0.796195 18.298139c-2.653983 0.530797-6.104162 1.326992-10.336188 2.388585-4.246373 0.53797-10.60876 1.864961-19.087161 3.973802v46.129099c2.116014 10.063618-9.288942 16.433178-34.20052 19.094334 0-5.838763-1.59239-11.404955-4.77717-16.705749-0.530797-1.05442-0.789022-1.850615-0.789022-2.388585 15.902381 1.59239 24.115383-1.05442 24.660526-7.947604v-34.20052c-16.440351 4.246373-28.634328 8.492747-36.596278 12.724774l-6.362387-19.883356a361.106704 361.106704 0 0 0 42.951492-8.743799v-31.819108h-18.298139c-12.20115 0-19.617958 0.272571-22.264768 0.796195v-15.909553c2.116014 0.530797 9.274596 0.796195 21.475746 0.796195h19.087161v-26.252916c0.516451 0.53797-3.72275 1.864961-12.724774 3.980975-7.431153 1.59239-13.520969 2.919382-18.298139 3.980975a58.158099 58.158099 0 0 0-8.743799-15.909554c22.795565-0.523624 46.394497-6.089816 70.782452-16.705749 1.599563 2.123187 3.980975 4.511772 7.158582 7.158582 5.83159 5.838763 8.213002 9.023543 7.158581 9.547167-0.53797 1.068766-2.123187 1.59239-4.769997 1.59239-7.947604 0-16.447523 1.068766-25.45672 3.177607v29.430523h39.773884c-0.028692-21.21752-1.104631-40.577253-3.213471-58.079197z m49.306705 10.343362a190.304947 190.304947 0 0 1 23.068136 30.226718l-15.909554 10.336189c-5.300794-10.601587-12.724774-20.679551-22.264768-30.226718l15.106186-10.336189zM1044.033987 298.924593c1.59239 0.53797 3.435832 1.068766 5.559019 1.59239 11.139557 1.59239 16.433178 3.18478 15.916727 4.769997 0 0.53797-0.530797 1.334165-1.59239 2.388585-3.72275 4.246373-8.227348 11.935752-13.520969 23.068136h54.083876c21.196002 0 34.989542-0.523624 41.359102-1.59239v18.290966c-4.77717-0.516451-18.563537-1.05442-41.359102-1.59239h-60.453436c-5.838763 10.077964-14.317164 22.80991-25.449547 38.181495-1.59239 2.123187-2.661156 3.715577-3.18478 4.769997v73.171036c0.523624 15.378757 0.789022 22.795565 0.789022 22.271941h-19.079988c1.047247-5.838763 1.59239-13.79354 1.59239-23.857158v-54.083876c-12.208323 12.20115-21.21752 20.414153-27.049111 24.653353-5.300794-5.83159-10.336189-10.063618-15.113359-12.724774a243.219636 243.219636 0 0 0 42.16247-32.608129l-0.789022-13.520969c3.701231 0 7.416807 0.272571 11.125211 0.796195 5.300794-5.83159 11.139557-14.840788 17.501944-27.049111h-17.501944c-5.83159 0-13.786367 0.272571-23.849985 0.796195h-14.317164v-18.298139c12.186804 1.068766 24.918751 1.59239 38.167149 1.59239h24.660525a118.912797 118.912797 0 0 0 10.343362-31.01574z m26.245743 60.453436c11.656008-0.523624 18.290966 0 19.883356 1.59239 0 1.068766-0.279744 2.661156-0.796195 4.769997-1.061593 2.661156-1.59239 5.838763-1.59239 9.547167v19.094333h16.705749c6.362387 0 16.956801-0.265398 31.811935-0.796195v17.494771h-3.177607c-14.855133-1.05442-24.395127-1.59239-28.627155-1.59239h-16.705749v49.313879h19.876183c19.094334-0.523624 31.022913-1.05442 35.800083-1.59239v15.909554h-11.139557a517.942771 517.942771 0 0 0-24.660526-0.796195h-59.650068a223.651889 223.651889 0 0 0-27.838132 1.59239v-16.712922c3.708404 0.530797 12.724774 0.796195 27.04911 0.796195 10.063618 0.53797 18.298139 0.796195 24.660526 0.796195v-49.313879c-20.1631 0-34.20052 0.530797-42.155297 1.59239V393.578548c12.717601 0.530797 26.769367 0.796195 42.155297 0.796195-0.007173-14.324337-0.552315-25.980344-1.599563-34.996714zM1181.912006 375.28041c5.83159 1.068766 11.928579 1.59239 18.290965 1.59239h2.388585c5.286448 0 11.656008-0.523624 19.087161-1.59239h1.59239c-1.068766 1.59239-1.59239 9.288942-1.59239 23.068135v50.110074c12.724774 6.900357 23.326361 11.139557 31.819108 12.724774 7.947604 1.59239 21.196002 2.388585 39.766712 2.388585 32.866355-1.05442 55.676266-2.64681 68.401039-4.77717-6.362387 5.307967-9.819738 11.935752-10.336189 19.883356-49.313879 0-80.336791-0.796195-93.061565-2.381412-9.023543-1.068766-19.359732-4.511772-31.01574-10.343362-7.431153-2.64681-12.724774-3.980975-15.916727-3.980975-7.42398 0.53797-14.051766 6.089816-19.876183 16.705749l-16.698575-12.724774a199.249588 199.249588 0 0 1 29.430522-19.087161v-54.880071c-8.492747 0-15.644156 0.53797-21.475746 1.59239h-0.789022v-18.298138z m30.219544-62.834848c5.83159 14.317164 10.063618 27.049111 12.724774 38.181495l-19.094334 3.973802c-2.64681-16.433178-6.096989-28.892553-10.329016-37.378127l16.698576-4.77717z m141.586422 26.245743v18.298139c-3.18478-1.05442-10.60876-1.59239-22.271941-1.59239h-3.177607c-3.715577 19.094334-10.077964 34.996715-19.08716 47.721488 6.886011 5.838763 16.167779 13.262744 27.838132 22.264768a437.986144 437.986144 0 0 0 12.724774 11.139557l-16.698576 15.106186c-5.307967-6.878838-13.520969-16.167779-24.660525-27.838133-4.253546-4.2392-7.158582-7.158582-8.750972-8.750972-12.208323 12.724774-30.499289 24.660526-54.887244 35.79291-3.708404-7.416807-8.485574-12.724774-14.309991-15.909554 21.733971-5.293621 40.555734-15.371584 56.472461-30.219545-15.393103-13.248398-29.437696-23.864331-42.16247-31.811934l15.120532-11.139557c13.772021 12.208323 26.245743 22.544512 37.378127 31.022913 6.362387-10.601587 10.859813-23.326361 13.520969-38.181495h-46.925294c-10.077964 0-19.62513 0.53797-28.634328 1.59239v-17.501944c3.708404 1.068766 13.248398 1.59239 28.634328 1.59239h66.012454c13.779194 0.007173 21.733971-0.509278 23.864331-1.585217z m-57.275828-33.404325a95.902045 95.902045 0 0 1 8.750972 26.245743l-19.883356 3.18478c-2.123187-10.601587-4.762824-19.352559-7.947604-26.245743l19.079988-3.18478zM1556.819423 310.853172a243.685876 243.685876 0 0 0-1.59239 28.634328v36.589105c0 6.893184 0.258225 13.79354 0.796195 20.67955 0.516451 2.661156 0.789022 4.511772 0.789022 5.566192-2.653983-1.047247-11.928579-1.585217-27.838133-1.585217h-34.207692v21.475746h33.404324c11.663181 0 21.475746-0.523624 29.437696-1.59239v17.494771c-8.499919-1.05442-18.298139-1.59239-29.437696-1.59239h-33.404324v23.864331h46.925293c18.556364 0 30.226718-0.523624 35.003888-1.59239v16.705749c-8.492747-1.068766-19.883356-1.59239-34.20052-1.59239h-108.971119c-17.487598 0-29.703094 0.523624-36.581932 1.59239v-16.705749c9.009197 1.068766 20.679551 1.59239 34.989542 1.59239h45.340077v-23.864331h-30.233891c-11.670354 0-22.544512 0.530797-32.60813 1.59239V420.620486h1.599563c8.471228 1.068766 18.290966 1.59239 29.430523 1.59239h31.819108v-21.475746h-27.838133c-13.269916 0-23.864331 0.53797-31.819108 1.585217 1.047247-6.362387 1.585217-16.167779 1.585217-29.423349v-36.589105a170.070118 170.070118 0 0 0-1.585217-23.864331v-1.59239c1.047247 0 2.381412 0.272571 3.973802 0.796195 12.193977 1.068766 21.992197 1.59239 29.437696 1.59239h77.144838c13.255571 0 22.802737-0.796195 28.641501-2.388585z m-120.09633 16.705749v22.271941h40.562906v-22.271941h-40.562906z m0 36.589105v22.271941h40.562906v-22.271941h-40.562906z m101.798191-36.589105h-43.747687v22.271941h43.747687v-22.271941z m0 36.589105h-43.747687v22.271941h43.747687v-22.271941z" fill="#FFFFFF" p-id="10351"></path></svg>